<svg id="visual" viewBox="0 0 960 540" width="960" height="540" xmlns="http://www.w3.org/2000/svg" xmlns:xlink="http://www.w3.org/1999/xlink" version="1.1"><rect x="0" y="0" width="960" height="540" fill="#05243b"></rect><path d="M0 306L22.8 303.7C45.7 301.3 91.3 296.7 137 319.5C182.7 342.3 228.3 392.7 274 409.8C319.7 427 365.3 411 411.2 409.7C457 408.3 503 421.7 548.8 423.5C594.7 425.3 640.3 415.7 686 408.3C731.7 401 777.3 396 823 384.8C868.7 373.7 914.3 356.3 937.2 347.7L960 339L960 0L937.2 0C914.3 0 868.7 0 823 0C777.3 0 731.7 0 686 0C640.3 0 594.7 0 548.8 0C503 0 457 0 411.2 0C365.3 0 319.7 0 274 0C228.3 0 182.7 0 137 0C91.3 0 45.7 0 22.8 0L0 0Z" fill="#267e46"></path><path d="M0 237L22.8 256.2C45.7 275.3 91.3 313.7 137 335.3C182.7 357 228.3 362 274 355.2C319.7 348.3 365.3 329.7 411.2 324.5C457 319.3 503 327.7 548.8 320.3C594.7 313 640.3 290 686 280.8C731.7 271.7 777.3 276.3 823 270.2C868.7 264 914.3 247 937.2 238.5L960 230L960 0L937.2 0C914.3 0 868.7 0 823 0C777.3 0 731.7 0 686 0C640.3 0 594.7 0 548.8 0C503 0 457 0 411.2 0C365.3 0 319.7 0 274 0C228.3 0 182.7 0 137 0C91.3 0 45.7 0 22.8 0L0 0Z" fill="#008091"></path><path d="M0 175L22.8 181.8C45.7 188.7 91.3 202.3 137 213.5C182.7 224.7 228.3 233.3 274 233.2C319.7 233 365.3 224 411.2 221C457 218 503 221 548.8 226.5C594.7 232 640.3 240 686 236.3C731.7 232.7 777.3 217.3 823 221.8C868.7 226.3 914.3 250.7 937.2 262.8L960 275L960 0L937.2 0C914.3 0 868.7 0 823 0C777.3 0 731.7 0 686 0C640.3 0 594.7 0 548.8 0C503 0 457 0 411.2 0C365.3 0 319.7 0 274 0C228.3 0 182.7 0 137 0C91.3 0 45.7 0 22.8 0L0 0Z" fill="#0074b6"></path><path d="M0 173L22.8 173.2C45.7 173.3 91.3 173.7 137 162C182.7 150.3 228.3 126.7 274 123.8C319.7 121 365.3 139 411.2 141.2C457 143.3 503 129.7 548.8 134C594.7 138.3 640.3 160.7 686 173C731.7 185.3 777.3 187.7 823 175.3C868.7 163 914.3 136 937.2 122.5L960 109L960 0L937.2 0C914.3 0 868.7 0 823 0C777.3 0 731.7 0 686 0C640.3 0 594.7 0 548.8 0C503 0 457 0 411.2 0C365.3 0 319.7 0 274 0C228.3 0 182.7 0 137 0C91.3 0 45.7 0 22.8 0L0 0Z" fill="#005acb"></path><path d="M0 65L22.8 69.5C45.7 74 91.3 83 137 89.5C182.7 96 228.3 100 274 96C319.7 92 365.3 80 411.2 73.3C457 66.7 503 65.3 548.8 73.7C594.7 82 640.3 100 686 108.3C731.7 116.7 777.3 115.3 823 106.5C868.7 97.7 914.3 81.3 937.2 73.2L960 65L960 0L937.2 0C914.3 0 868.7 0 823 0C777.3 0 731.7 0 686 0C640.3 0 594.7 0 548.8 0C503 0 457 0 411.2 0C365.3 0 319.7 0 274 0C228.3 0 182.7 0 137 0C91.3 0 45.7 0 22.8 0L0 0Z" fill="#5f24c7"></path></svg>