<svg id="visual" viewBox="0 0 2650 1440" width="2650" height="1440" xmlns="http://www.w3.org/2000/svg" xmlns:xlink="http://www.w3.org/1999/xlink" version="1.1"><rect x="0" y="0" width="2650" height="1440" fill="#05243b"></rect><path d="M0 817L63.2 811.2C126.3 805.3 252.7 793.7 378.8 854.5C505 915.3 631 1048.7 757.2 1094C883.3 1139.3 1009.7 1096.7 1135.8 1093.3C1262 1090 1388 1126 1514.2 1131.2C1640.3 1136.3 1766.7 1110.7 1892.8 1091C2019 1071.3 2145 1057.7 2271.2 1028C2397.3 998.3 2523.7 952.7 2586.8 929.8L2650 907L2650 0L2586.8 0C2523.7 0 2397.3 0 2271.2 0C2145 0 2019 0 1892.8 0C1766.7 0 1640.3 0 1514.2 0C1388 0 1262 0 1135.8 0C1009.7 0 883.3 0 757.2 0C631 0 505 0 378.8 0C252.7 0 126.3 0 63.2 0L0 0Z" fill="#267e46"></path><path d="M0 634L63.2 685C126.3 736 252.7 838 378.8 895.8C505 953.7 631 967.3 757.2 949.2C883.3 931 1009.7 881 1135.8 867.2C1262 853.3 1388 875.7 1514.2 855.8C1640.3 836 1766.7 774 1892.8 749.5C2019 725 2145 738 2271.2 721.7C2397.3 705.3 2523.7 659.7 2586.8 636.8L2650 614L2650 0L2586.8 0C2523.7 0 2397.3 0 2271.2 0C2145 0 2019 0 1892.8 0C1766.7 0 1640.3 0 1514.2 0C1388 0 1262 0 1135.8 0C1009.7 0 883.3 0 757.2 0C631 0 505 0 378.8 0C252.7 0 126.3 0 63.2 0L0 0Z" fill="#008091"></path><path d="M0 468L63.2 486.3C126.3 504.7 252.7 541.3 378.8 571.2C505 601 631 624 757.2 623.5C883.3 623 1009.7 599 1135.8 590.8C1262 582.7 1388 590.3 1514.2 605C1640.3 619.7 1766.7 641.3 1892.8 631.7C2019 622 2145 581 2271.2 593C2397.3 605 2523.7 670 2586.8 702.5L2650 735L2650 0L2586.8 0C2523.7 0 2397.3 0 2271.2 0C2145 0 2019 0 1892.8 0C1766.7 0 1640.3 0 1514.2 0C1388 0 1262 0 1135.8 0C1009.7 0 883.3 0 757.2 0C631 0 505 0 378.8 0C252.7 0 126.3 0 63.2 0L0 0Z" fill="#0074b6"></path><path d="M0 462L63.2 462.7C126.3 463.3 252.7 464.7 378.8 433.8C505 403 631 340 757.2 332.3C883.3 324.7 1009.7 372.3 1135.8 378C1262 383.7 1388 347.3 1514.2 358.8C1640.3 370.3 1766.7 429.7 1892.8 462.5C2019 495.3 2145 501.7 2271.2 469C2397.3 436.3 2523.7 364.7 2586.8 328.8L2650 293L2650 0L2586.8 0C2523.7 0 2397.3 0 2271.2 0C2145 0 2019 0 1892.8 0C1766.7 0 1640.3 0 1514.2 0C1388 0 1262 0 1135.8 0C1009.7 0 883.3 0 757.2 0C631 0 505 0 378.8 0C252.7 0 126.3 0 63.2 0L0 0Z" fill="#005acb"></path><path d="M0 175L63.2 187C126.3 199 252.7 223 378.8 240.2C505 257.3 631 267.7 757.2 256.8C883.3 246 1009.7 214 1135.8 196.5C1262 179 1388 176 1514.2 198.2C1640.3 220.3 1766.7 267.7 1892.8 289.8C2019 312 2145 309 2271.2 285.8C2397.3 262.7 2523.7 219.3 2586.8 197.7L2650 176L2650 0L2586.8 0C2523.7 0 2397.3 0 2271.2 0C2145 0 2019 0 1892.8 0C1766.7 0 1640.3 0 1514.2 0C1388 0 1262 0 1135.8 0C1009.7 0 883.3 0 757.2 0C631 0 505 0 378.8 0C252.7 0 126.3 0 63.2 0L0 0Z" fill="#5f24c7"></path></svg>